<svg xmlns="http://www.w3.org/2000/svg" xmlns:xlink="http://www.w3.org/1999/xlink" width="auto" zoomAndPan="magnify" viewBox="0 0 1440 404.99999" height="auto" preserveAspectRatio="xMidYMid meet" version="1.0"><defs><g/><clipPath id="b73d1044a7"><path d="M 12.503906 264 L 645 264 L 645 303 L 12.503906 303 Z M 12.503906 264 " clip-rule="nonzero"/></clipPath><clipPath id="45deeb64da"><path d="M 795 263.242188 L 1427.492188 263.242188 L 1427.492188 302.992188 L 795 302.992188 Z M 795 263.242188 " clip-rule="nonzero"/></clipPath></defs><g fill="#dfc661" fill-opacity="1"><g transform="translate(117.489877, 220.169127)"><g><path d="M 98.800781 -87.15625 C 92.351562 -103.519531 75.671875 -114.375 60.726562 -115.320312 L 36.8125 -94.867188 C 36.34375 -104.148438 34.296875 -112.015625 24.386719 -115.320312 L -3.777344 -91.5625 L -1.101562 -86.6875 C 8.179688 -92.351562 11.640625 -89.203125 12.113281 -79.605469 L 12.269531 -18.25 C 12.113281 -11.011719 9.910156 -7.867188 7.238281 -3.617188 L 11.011719 0 C 21.867188 -9.441406 33.039062 0 44.679688 0 C 55.691406 0 67.019531 -7.867188 76.933594 -16.675781 C 100.84375 -38.859375 106.195312 -67.335938 98.800781 -87.15625 Z M 72.683594 -23.597656 C 62.300781 -14.160156 52.390625 -26.902344 36.972656 -26.117188 L 36.8125 -84.484375 L 48.457031 -94.082031 C 71.269531 -94.082031 87 -38.386719 72.683594 -23.597656 Z M 72.683594 -23.597656 "/></g></g></g><g fill="#dfc661" fill-opacity="1"><g transform="translate(223.204684, 220.169127)"><g><path d="M 80.234375 -25.644531 C 72.839844 -20.296875 70.167969 -25.800781 70.324219 -33.980469 L 70.167969 -58.523438 C 69.695312 -83.855469 50.03125 -87.15625 31.621094 -87.15625 L 1.886719 -65.761719 L 5.035156 -60.886719 C 16.832031 -68.121094 35.871094 -69.222656 42.792969 -58.210938 C 21.554688 -52.074219 5.976562 -42.636719 3.460938 -26.273438 C 1.886719 -15.101562 10.226562 -0.15625 23.125 0 L 46.410156 -16.992188 C 47.355469 -9.597656 52.546875 0 57.738281 0 L 83.695312 -21.238281 Z M 35.398438 -18.722656 C 23.914062 -25.171875 24.855469 -43.421875 45.152344 -50.816406 L 45.308594 -25.171875 Z M 35.398438 -18.722656 "/></g></g></g><g fill="#dfc661" fill-opacity="1"><g transform="translate(303.120058, 220.169127)"><g><path d="M 54.59375 -50.972656 L 75.042969 -67.964844 C 75.042969 -67.964844 63.714844 -87.15625 51.761719 -87.15625 L 35.710938 -71.742188 C 34.140625 -78.347656 30.519531 -82.59375 24.386719 -87.15625 L -3.777344 -63.558594 L -1.101562 -58.523438 C 8.179688 -64.503906 11.800781 -61.355469 12.113281 -51.761719 L 12.113281 -27.21875 C 11.957031 -13.53125 17.304688 -4.40625 24.386719 0 L 50.34375 -20.925781 L 46.726562 -25.800781 C 39.332031 -20.609375 36.8125 -25.644531 36.972656 -33.667969 L 36.8125 -59.152344 L 36.8125 -61.515625 L 37.757812 -62.457031 C 44.367188 -68.59375 50.1875 -58.367188 54.59375 -50.972656 Z M 54.59375 -50.972656 "/></g></g></g><g fill="#dfc661" fill-opacity="1"><g transform="translate(372.495386, 220.169127)"><g><path d="M 61.042969 -60.886719 L 64.1875 -65.289062 C 69.222656 -65.289062 73.15625 -63.402344 82.125 -55.378906 L 101.476562 -73.628906 C 92.035156 -89.519531 72.683594 -91.089844 64.976562 -80.863281 L 37.128906 -42.636719 L 37.128906 -99.273438 C 37.445312 -114.53125 34.140625 -120.511719 24.699219 -127.589844 L -3.777344 -103.992188 L -1.101562 -98.957031 C 8.179688 -104.621094 11.957031 -101.632812 12.113281 -91.878906 L 12.113281 -27.53125 C 12.113281 -13.53125 17.621094 -4.246094 24.699219 0 L 50.816406 -21.082031 L 47.039062 -26.117188 C 41.535156 -22.027344 38.542969 -23.914062 37.757812 -28.789062 L 44.367188 -38.074219 C 48.929688 -27.058594 62.929688 0 74.570312 0 L 97.699219 -19.824219 L 94.394531 -24.855469 C 82.753906 -16.992188 70.480469 -43.578125 61.042969 -60.886719 Z M 61.042969 -60.886719 "/></g></g></g><g fill="#dfc661" fill-opacity="1"><g transform="translate(472.074945, 220.169127)"><g/></g></g><g fill="#dfc661" fill-opacity="1"><g transform="translate(519.269068, 220.169127)"><g><path d="M 80.234375 -25.644531 C 72.839844 -20.296875 70.167969 -25.800781 70.324219 -33.980469 L 70.167969 -58.523438 C 69.695312 -83.855469 50.03125 -87.15625 31.621094 -87.15625 L 1.886719 -65.761719 L 5.035156 -60.886719 C 16.832031 -68.121094 35.871094 -69.222656 42.792969 -58.210938 C 21.554688 -52.074219 5.976562 -42.636719 3.460938 -26.273438 C 1.886719 -15.101562 10.226562 -0.15625 23.125 0 L 46.410156 -16.992188 C 47.355469 -9.597656 52.546875 0 57.738281 0 L 83.695312 -21.238281 Z M 35.398438 -18.722656 C 23.914062 -25.171875 24.855469 -43.421875 45.152344 -50.816406 L 45.308594 -25.171875 Z M 35.398438 -18.722656 "/></g></g></g><g fill="#dfc661" fill-opacity="1"><g transform="translate(599.184441, 220.169127)"><g><path d="M 90.460938 -25.957031 C 83.066406 -20.609375 80.550781 -25.644531 80.707031 -33.667969 L 80.550781 -58.996094 C 80.707031 -74.101562 77.402344 -87.316406 68.121094 -87.15625 C 56.953125 -87.15625 47.039062 -73.472656 36.8125 -55.851562 L 36.8125 -58.996094 C 36.972656 -74.101562 33.824219 -80.234375 24.542969 -87.15625 L -3.777344 -63.558594 L -0.785156 -58.210938 C 8.496094 -64.03125 11.800781 -61.042969 12.113281 -51.289062 L 12.113281 -27.21875 C 12.113281 -13.371094 17.464844 -4.246094 24.542969 0 L 50.34375 -21.082031 L 46.726562 -25.957031 C 39.332031 -20.609375 36.8125 -25.644531 36.972656 -33.667969 L 36.972656 -37.757812 C 44.207031 -51.917969 46.882812 -57.738281 51.761719 -57.265625 C 57.109375 -56.636719 55.691406 -47.199219 55.851562 -43.578125 L 55.851562 -27.21875 C 55.691406 -13.371094 61.199219 -4.246094 68.121094 0 L 94.082031 -21.082031 Z M 90.460938 -25.957031 "/></g></g></g><g fill="#dfc661" fill-opacity="1"><g transform="translate(691.370265, 220.169127)"><g><path d="M 87.472656 -25.957031 C 80.078125 -20.609375 77.402344 -25.644531 77.402344 -33.824219 L 77.402344 -99.429688 C 77.71875 -114.375 74.414062 -120.667969 64.976562 -127.589844 L 36.65625 -104.148438 L 39.332031 -99.113281 C 48.769531 -104.777344 52.390625 -101.789062 52.546875 -92.035156 L 52.546875 -87.15625 C 45.152344 -85.898438 36.972656 -82.4375 28.003906 -76.300781 C 14.316406 -67.179688 3.777344 -51.289062 3.777344 -35.554688 C 3.777344 -20.453125 10.226562 -8.96875 28.003906 0 L 52.703125 -23.914062 C 53.492188 -11.957031 58.523438 -3.933594 64.976562 0 L 91.089844 -21.082031 Z M 30.992188 -67.019531 C 38.230469 -71.582031 46.726562 -70.953125 52.546875 -64.1875 L 52.546875 -33.824219 L 39.960938 -21.867188 C 27.21875 -31.148438 18.25 -57.421875 30.992188 -67.019531 Z M 30.992188 -67.019531 "/></g></g></g><g fill="#dfc661" fill-opacity="1"><g transform="translate(780.567148, 220.169127)"><g/></g></g><g fill="#dfc661" fill-opacity="1"><g transform="translate(827.76127, 220.169127)"><g><path d="M 98.800781 -87.15625 C 92.351562 -103.519531 75.671875 -114.375 60.726562 -115.320312 L 36.8125 -94.867188 C 36.34375 -104.148438 34.296875 -112.015625 24.386719 -115.320312 L -3.777344 -91.5625 L -1.101562 -86.6875 C 8.179688 -92.351562 11.640625 -89.203125 12.113281 -79.605469 L 12.269531 -18.25 C 12.113281 -11.011719 9.910156 -7.867188 7.238281 -3.617188 L 11.011719 0 C 21.867188 -9.441406 33.039062 0 44.679688 0 C 55.691406 0 67.019531 -7.867188 76.933594 -16.675781 C 100.84375 -38.859375 106.195312 -67.335938 98.800781 -87.15625 Z M 72.683594 -23.597656 C 62.300781 -14.160156 52.390625 -26.902344 36.972656 -26.117188 L 36.8125 -84.484375 L 48.457031 -94.082031 C 71.269531 -94.082031 87 -38.386719 72.683594 -23.597656 Z M 72.683594 -23.597656 "/></g></g></g><g fill="#dfc661" fill-opacity="1"><g transform="translate(933.476078, 220.169127)"><g><path d="M 80.234375 -25.644531 C 72.839844 -20.296875 70.167969 -25.800781 70.324219 -33.980469 L 70.167969 -58.523438 C 69.695312 -83.855469 50.03125 -87.15625 31.621094 -87.15625 L 1.886719 -65.761719 L 5.035156 -60.886719 C 16.832031 -68.121094 35.871094 -69.222656 42.792969 -58.210938 C 21.554688 -52.074219 5.976562 -42.636719 3.460938 -26.273438 C 1.886719 -15.101562 10.226562 -0.15625 23.125 0 L 46.410156 -16.992188 C 47.355469 -9.597656 52.546875 0 57.738281 0 L 83.695312 -21.238281 Z M 35.398438 -18.722656 C 23.914062 -25.171875 24.855469 -43.421875 45.152344 -50.816406 L 45.308594 -25.171875 Z M 35.398438 -18.722656 "/></g></g></g><g fill="#dfc661" fill-opacity="1"><g transform="translate(1013.391402, 220.169127)"><g><path d="M 54.59375 -50.972656 L 75.042969 -67.964844 C 75.042969 -67.964844 63.714844 -87.15625 51.761719 -87.15625 L 35.710938 -71.742188 C 34.140625 -78.347656 30.519531 -82.59375 24.386719 -87.15625 L -3.777344 -63.558594 L -1.101562 -58.523438 C 8.179688 -64.503906 11.800781 -61.355469 12.113281 -51.761719 L 12.113281 -27.21875 C 11.957031 -13.53125 17.304688 -4.40625 24.386719 0 L 50.34375 -20.925781 L 46.726562 -25.800781 C 39.332031 -20.609375 36.8125 -25.644531 36.972656 -33.667969 L 36.8125 -59.152344 L 36.8125 -61.515625 L 37.757812 -62.457031 C 44.367188 -68.59375 50.1875 -58.367188 54.59375 -50.972656 Z M 54.59375 -50.972656 "/></g></g></g><g fill="#dfc661" fill-opacity="1"><g transform="translate(1082.766684, 220.169127)"><g><path d="M 61.042969 -60.886719 L 64.1875 -65.289062 C 69.222656 -65.289062 73.15625 -63.402344 82.125 -55.378906 L 101.476562 -73.628906 C 92.035156 -89.519531 72.683594 -91.089844 64.976562 -80.863281 L 37.128906 -42.636719 L 37.128906 -99.273438 C 37.445312 -114.53125 34.140625 -120.511719 24.699219 -127.589844 L -3.777344 -103.992188 L -1.101562 -98.957031 C 8.179688 -104.621094 11.957031 -101.632812 12.113281 -91.878906 L 12.113281 -27.53125 C 12.113281 -13.53125 17.621094 -4.246094 24.699219 0 L 50.816406 -21.082031 L 47.039062 -26.117188 C 41.535156 -22.027344 38.542969 -23.914062 37.757812 -28.789062 L 44.367188 -38.074219 C 48.929688 -27.058594 62.929688 0 74.570312 0 L 97.699219 -19.824219 L 94.394531 -24.855469 C 82.753906 -16.992188 70.480469 -43.578125 61.042969 -60.886719 Z M 61.042969 -60.886719 "/></g></g></g><g fill="#dfc661" fill-opacity="1"><g transform="translate(1182.346196, 220.169127)"><g><path d="M 35.710938 -31.9375 L 68.910156 -59.46875 C 68.910156 -69.851562 53.648438 -87.15625 41.691406 -87.15625 C 29.261719 -87.15625 9.910156 -65.605469 5.820312 -58.839844 C -5.191406 -39.015625 16.363281 -0.472656 34.140625 0 L 67.492188 -25.488281 L 64.1875 -30.519531 C 51.917969 -22.496094 42.636719 -25.015625 35.710938 -31.9375 Z M 26.902344 -69.222656 C 33.039062 -73.3125 42.636719 -60.414062 45.308594 -50.816406 L 31.9375 -39.488281 C 25.171875 -50.1875 20.453125 -64.503906 26.902344 -69.222656 Z M 26.902344 -69.222656 "/></g></g></g><g fill="#dfc661" fill-opacity="1"><g transform="translate(1253.13738, 220.169127)"><g><path d="M 54.59375 -50.972656 L 75.042969 -67.964844 C 75.042969 -67.964844 63.714844 -87.15625 51.761719 -87.15625 L 35.710938 -71.742188 C 34.140625 -78.347656 30.519531 -82.59375 24.386719 -87.15625 L -3.777344 -63.558594 L -1.101562 -58.523438 C 8.179688 -64.503906 11.800781 -61.355469 12.113281 -51.761719 L 12.113281 -27.21875 C 11.957031 -13.53125 17.304688 -4.40625 24.386719 0 L 50.34375 -20.925781 L 46.726562 -25.800781 C 39.332031 -20.609375 36.8125 -25.644531 36.972656 -33.667969 L 36.8125 -59.152344 L 36.8125 -61.515625 L 37.757812 -62.457031 C 44.367188 -68.59375 50.1875 -58.367188 54.59375 -50.972656 Z M 54.59375 -50.972656 "/></g></g></g><g clip-path="url(#b73d1044a7)"><path fill="#f1e6e6" d="M 399.183594 281.304688 L 14.609375 281.304688 C 13.292969 281.304688 12.503906 282.363281 12.503906 283.421875 C 12.503906 284.484375 13.292969 285.542969 14.609375 285.542969 L 399.183594 285.542969 L 625.667969 302.769531 L 644.871094 283.421875 L 625.667969 264.078125 Z M 399.183594 281.304688 " fill-opacity="1" fill-rule="nonzero"/></g><g fill="#f1e6e6" fill-opacity="1"><g transform="translate(650.036312, 303.46135)"><g><path d="M 0.6875 -41.375 L 12.296875 -41.375 L 15.53125 -23.5 C 15.71875 -22.40625 16.023438 -20.503906 16.453125 -17.796875 C 16.890625 -15.097656 17.269531 -12.785156 17.59375 -10.859375 L 17.875 -10.859375 C 18.101562 -12.273438 18.523438 -14.65625 19.140625 -18 C 19.753906 -21.34375 20.085938 -23.175781 20.140625 -23.5 L 23.4375 -41.375 L 34.4375 -41.375 L 37.734375 -23.4375 C 37.910156 -22.289062 38.273438 -20.257812 38.828125 -17.34375 C 39.378906 -14.4375 39.769531 -12.273438 40 -10.859375 L 40.265625 -10.859375 C 40.910156 -14.753906 41.597656 -18.96875 42.328125 -23.5 L 45.5625 -41.375 L 57.1875 -41.375 L 46.109375 0 L 34.359375 0 L 31.125 -17.3125 C 30.90625 -18.601562 30.566406 -20.644531 30.109375 -23.4375 C 29.648438 -26.226562 29.304688 -28.242188 29.078125 -29.484375 L 28.796875 -29.484375 C 28.566406 -28.015625 28.1875 -25.734375 27.65625 -22.640625 C 27.132812 -19.546875 26.828125 -17.769531 26.734375 -17.3125 L 23.5 0 L 11.75 0 Z M 0.6875 -41.375 "/></g></g></g><g fill="#f1e6e6" fill-opacity="1"><g transform="translate(707.82156, 303.46135)"><g><path d="M 4.671875 -45.765625 L 4.671875 -57.046875 L 15.734375 -57.046875 L 15.734375 -45.765625 Z M 4.8125 0 L 4.8125 -41.375 L 15.671875 -41.375 L 15.671875 0 Z M 4.8125 0 "/></g></g></g><g fill="#f1e6e6" fill-opacity="1"><g transform="translate(728.22848, 303.46135)"><g><path d="M 4.671875 0 L 4.671875 -58 L 15.53125 -58 L 15.53125 -27.484375 L 28.25 -41.375 L 41.78125 -41.375 L 26.25 -24.390625 L 42.328125 0 L 29.625 0 L 19.171875 -16.703125 L 15.53125 -12.71875 L 15.53125 0 Z M 4.671875 0 "/></g></g></g><g fill="#f1e6e6" fill-opacity="1"><g transform="translate(769.523289, 303.46135)"><g><path d="M 4.671875 -45.765625 L 4.671875 -57.046875 L 15.734375 -57.046875 L 15.734375 -45.765625 Z M 4.8125 0 L 4.8125 -41.375 L 15.671875 -41.375 L 15.671875 0 Z M 4.8125 0 "/></g></g></g><g clip-path="url(#45deeb64da)"><path fill="#f1e6e6" d="M 1040.8125 285.238281 L 1425.386719 285.238281 C 1426.703125 285.238281 1427.492188 284.179688 1427.492188 283.117188 C 1427.492188 282.058594 1426.703125 281 1425.386719 281 L 1040.8125 281 L 814.328125 263.773438 L 795.125 283.117188 L 814.328125 302.464844 Z M 1040.8125 285.238281 " fill-opacity="1" fill-rule="nonzero"/></g></svg>