<svg xmlns="http://www.w3.org/2000/svg" xmlns:xlink="http://www.w3.org/1999/xlink" width="auto" zoomAndPan="magnify" viewBox="0 0 810 269.999989" height="auto" preserveAspectRatio="xMidYMid meet" version="1.0"><defs><g/><clipPath id="4732ac234f"><path d="M 432 201 L 810 201 L 810 242.800781 L 432 242.800781 Z M 432 201 " clip-rule="nonzero"/></clipPath><clipPath id="22a234073b"><path d="M 0 201 L 379 201 L 379 242.800781 L 0 242.800781 Z M 0 201 " clip-rule="nonzero"/></clipPath></defs><g fill="#000000" fill-opacity="1"><g transform="translate(27.822349, 145.048391)"><g><path d="M 115.550781 -20.632812 L 112.035156 -25.832031 C 104.851562 -20.632812 102.558594 -26.441406 103.015625 -34.847656 L 102.863281 -84.523438 C 103.015625 -99.347656 99.5 -105.308594 90.332031 -112.035156 L 62.820312 -88.953125 L 65.417969 -83.605469 C 74.433594 -89.261719 77.949219 -86.355469 78.253906 -76.878906 L 78.253906 -53.035156 C 59.761719 -78.867188 37.90625 -111.882812 23.996094 -112.035156 L -3.667969 -88.648438 L -1.222656 -83.300781 C 7.796875 -88.953125 11.308594 -86.050781 11.617188 -76.574219 L 11.617188 -26.59375 C 11.617188 -12.992188 16.964844 -4.125 23.84375 0 L 48.910156 -20.632812 L 45.394531 -25.675781 C 38.210938 -20.480469 35.613281 -23.691406 35.917969 -33.167969 L 35.917969 -68.933594 C 57.773438 -41.574219 81.769531 0 90.175781 0 L 90.636719 -0.304688 Z M 115.550781 -20.632812 "/></g></g></g><g fill="#000000" fill-opacity="1"><g transform="translate(141.52965, 145.048391)"><g><path d="M 77.949219 -24.914062 C 70.765625 -19.71875 68.167969 -25.066406 68.320312 -33.015625 L 68.167969 -56.859375 C 67.710938 -81.464844 48.605469 -84.675781 30.722656 -84.675781 L 1.835938 -63.886719 L 4.890625 -59.152344 C 16.355469 -66.179688 34.847656 -67.25 41.574219 -56.550781 C 20.941406 -50.589844 5.808594 -41.421875 3.363281 -25.523438 C 1.835938 -14.671875 9.933594 -0.152344 22.46875 0 L 45.089844 -16.507812 C 46.007812 -9.324219 51.050781 0 56.09375 0 L 81.3125 -20.632812 Z M 34.390625 -18.1875 C 23.230469 -24.453125 24.148438 -42.183594 43.867188 -49.367188 L 44.019531 -24.453125 Z M 34.390625 -18.1875 "/></g></g></g><g fill="#000000" fill-opacity="1"><g transform="translate(219.168501, 145.048391)"><g><path d="M 68.320312 -21.550781 C 93.386719 -47.839844 82.992188 -84.675781 66.640625 -84.675781 L 40.046875 -65.265625 L 42.796875 -59.914062 C 59.761719 -70.003906 63.582031 -36.835938 57.164062 -22.621094 C 43.101562 -30.875 35.460938 -84.675781 19.105469 -84.675781 L -5.503906 -61.597656 L -2.902344 -56.703125 C 16.964844 -74.28125 25.21875 0 43.867188 0 C 51.660156 -5.042969 68.320312 -21.550781 68.320312 -21.550781 Z M 68.320312 -21.550781 "/></g></g></g><g fill="#000000" fill-opacity="1"><g transform="translate(304.296146, 145.048391)"><g><path d="M 3.363281 -96.445312 L 9.019531 -88.496094 L 33.472656 -104.238281 L 25.984375 -114.632812 Z M 45.394531 -25.21875 C 38.210938 -20.023438 35.613281 -24.914062 35.917969 -32.707031 L 35.613281 -57.46875 C 35.917969 -71.988281 32.863281 -77.949219 23.691406 -84.675781 L -3.667969 -61.902344 L -1.222656 -57.011719 C 7.796875 -62.511719 11.308594 -59.609375 11.769531 -50.285156 L 11.769531 -26.441406 C 11.769531 -12.992188 16.964844 -4.125 23.691406 0 L 48.910156 -20.328125 Z M 45.394531 -25.21875 "/></g></g></g><g fill="#000000" fill-opacity="1"><g transform="translate(351.368501, 145.048391)"><g><path d="M 79.171875 -69.847656 L 77.492188 -75.046875 C 69.847656 -72.449219 63.429688 -76.269531 57.773438 -79.785156 C 53.035156 -82.992188 48.144531 -84.675781 41.421875 -84.675781 L 19.71875 -70.917969 C -6.265625 -54.105469 -2.140625 -11.308594 19.871094 0 L 44.9375 -16.355469 L 44.9375 -12.226562 C 23.230469 2.597656 5.042969 20.480469 10.085938 33.320312 C 14.671875 43.714844 40.351562 33.320312 54.414062 15.4375 L 69.238281 -2.292969 L 69.085938 -62.359375 Z M 44.9375 -23.996094 L 38.363281 -19.5625 C 24.761719 -27.359375 18.953125 -52.273438 26.289062 -66.945312 C 35.152344 -65.570312 44.9375 -60.527344 44.9375 -50.132812 Z M 44.9375 15.4375 C 40.65625 19.71875 36.222656 18.339844 33.929688 15.285156 C 31.636719 10.242188 37.445312 1.835938 44.9375 -5.042969 Z M 44.9375 15.4375 "/></g></g></g><g fill="#000000" fill-opacity="1"><g transform="translate(430.994146, 145.048391)"><g><path d="M 77.949219 -24.914062 C 70.765625 -19.71875 68.167969 -25.066406 68.320312 -33.015625 L 68.167969 -56.859375 C 67.710938 -81.464844 48.605469 -84.675781 30.722656 -84.675781 L 1.835938 -63.886719 L 4.890625 -59.152344 C 16.355469 -66.179688 34.847656 -67.25 41.574219 -56.550781 C 20.941406 -50.589844 5.808594 -41.421875 3.363281 -25.523438 C 1.835938 -14.671875 9.933594 -0.152344 22.46875 0 L 45.089844 -16.507812 C 46.007812 -9.324219 51.050781 0 56.09375 0 L 81.3125 -20.632812 Z M 34.390625 -18.1875 C 23.230469 -24.453125 24.148438 -42.183594 43.867188 -49.367188 L 44.019531 -24.453125 Z M 34.390625 -18.1875 "/></g></g></g><g fill="#000000" fill-opacity="1"><g transform="translate(508.632997, 145.048391)"><g><path d="M 63.277344 -80.089844 L 63.277344 -84.675781 L 41.421875 -84.675781 L 41.421875 -91.707031 C 41.574219 -106.53125 38.515625 -112.644531 29.347656 -119.371094 L 1.679688 -96.445312 L 4.433594 -91.402344 C 13.601562 -97.207031 16.964844 -94.304688 17.269531 -84.675781 L 12.6875 -84.675781 L -1.835938 -71.835938 L -1.835938 -66.792969 L 17.269531 -66.792969 L 17.269531 -26.746094 C 17.269531 -12.992188 22.46875 -4.125 29.347656 0 L 61.289062 -24.914062 L 57.773438 -29.804688 C 47.992188 -22.316406 41.421875 -25.066406 41.574219 -32.863281 L 41.421875 -66.792969 L 50.742188 -66.792969 Z M 63.277344 -80.089844 "/></g></g></g><g fill="#000000" fill-opacity="1"><g transform="translate(570.071624, 145.048391)"><g><path d="M 3.363281 -96.445312 L 9.019531 -88.496094 L 33.472656 -104.238281 L 25.984375 -114.632812 Z M 45.394531 -25.21875 C 38.210938 -20.023438 35.613281 -24.914062 35.917969 -32.707031 L 35.613281 -57.46875 C 35.917969 -71.988281 32.863281 -77.949219 23.691406 -84.675781 L -3.667969 -61.902344 L -1.222656 -57.011719 C 7.796875 -62.511719 11.308594 -59.609375 11.769531 -50.285156 L 11.769531 -26.441406 C 11.769531 -12.992188 16.964844 -4.125 23.691406 0 L 48.910156 -20.328125 Z M 45.394531 -25.21875 "/></g></g></g><g fill="#000000" fill-opacity="1"><g transform="translate(617.143979, 145.048391)"><g><path d="M 38.976562 -84.675781 L 11.308594 -61.902344 C -10.394531 -42.03125 8.558594 0.152344 31.636719 0 L 61.75 -24.609375 C 86.355469 -48.453125 69.847656 -84.675781 38.976562 -84.675781 Z M 46.617188 -20.941406 C 28.734375 -20.941406 17.882812 -55.789062 27.359375 -66.179688 C 45.394531 -66.179688 52.578125 -32.554688 46.617188 -20.941406 Z M 46.617188 -20.941406 "/></g></g></g><g fill="#000000" fill-opacity="1"><g transform="translate(692.643149, 145.048391)"><g><path d="M 87.886719 -25.21875 C 80.703125 -20.023438 78.253906 -24.914062 78.410156 -32.707031 L 78.253906 -57.316406 C 78.410156 -71.988281 75.199219 -84.828125 66.179688 -84.675781 C 55.328125 -84.675781 45.699219 -71.378906 35.765625 -54.257812 L 35.765625 -57.316406 C 35.917969 -71.988281 32.863281 -77.949219 23.84375 -84.675781 L -3.667969 -61.75 L -0.765625 -56.550781 C 8.253906 -62.207031 11.464844 -59.304688 11.769531 -49.828125 L 11.769531 -26.441406 C 11.769531 -12.992188 16.964844 -4.125 23.84375 0 L 48.910156 -20.480469 L 45.394531 -25.21875 C 38.210938 -20.023438 35.765625 -24.914062 35.917969 -32.707031 L 35.917969 -36.683594 C 42.949219 -50.4375 45.546875 -56.09375 50.285156 -55.636719 C 55.480469 -55.023438 54.105469 -45.851562 54.257812 -42.335938 L 54.257812 -26.441406 C 54.105469 -12.992188 59.457031 -4.125 66.179688 0 L 91.402344 -20.480469 Z M 87.886719 -25.21875 "/></g></g></g><g clip-path="url(#4732ac234f)"><path fill="#dfc661" d="M 1106.144531 219.5625 L 694.820312 219.5625 L 452.582031 201.363281 L 432.042969 221.800781 L 452.582031 242.238281 L 694.820312 224.039062 L 1106.425781 224.039062 C 1107.550781 224.039062 1108.675781 223.199219 1108.675781 221.800781 C 1108.675781 220.402344 1107.550781 219.5625 1106.144531 219.5625 Z M 1106.144531 219.5625 " fill-opacity="1" fill-rule="nonzero"/></g><g clip-path="url(#22a234073b)"><path fill="#dfc661" d="M 115.25 219.5625 L -296.074219 219.5625 C -297.480469 219.5625 -298.324219 220.679688 -298.324219 221.800781 C -298.324219 222.921875 -297.480469 224.039062 -296.074219 224.039062 L 115.25 224.039062 L 357.488281 242.238281 L 378.023438 221.800781 L 357.488281 201.363281 Z M 115.25 219.5625 " fill-opacity="1" fill-rule="nonzero"/></g><path fill="#dfc661" d="M 422.476562 221.800781 C 422.476562 222.367188 422.449219 222.9375 422.394531 223.5 C 422.335938 224.066406 422.253906 224.628906 422.140625 225.1875 C 422.03125 225.742188 421.890625 226.292969 421.726562 226.839844 C 421.5625 227.382812 421.367188 227.917969 421.148438 228.441406 C 420.929688 228.96875 420.6875 229.480469 420.417969 229.980469 C 420.148438 230.484375 419.855469 230.96875 419.539062 231.441406 C 419.21875 231.914062 418.878906 232.371094 418.519531 232.8125 C 418.15625 233.25 417.773438 233.671875 417.367188 234.074219 C 416.964844 234.476562 416.542969 234.855469 416.101562 235.21875 C 415.660156 235.578125 415.199219 235.917969 414.726562 236.230469 C 414.25 236.546875 413.761719 236.839844 413.257812 237.109375 C 412.753906 237.375 412.238281 237.617188 411.710938 237.835938 C 411.183594 238.054688 410.644531 238.246094 410.097656 238.410156 C 409.550781 238.574219 408.996094 238.710938 408.4375 238.824219 C 407.878906 238.933594 407.3125 239.019531 406.746094 239.074219 C 406.175781 239.128906 405.605469 239.15625 405.035156 239.15625 C 404.464844 239.15625 403.894531 239.128906 403.324219 239.074219 C 402.757812 239.019531 402.191406 238.933594 401.632812 238.824219 C 401.070312 238.710938 400.515625 238.574219 399.972656 238.410156 C 399.425781 238.246094 398.886719 238.054688 398.359375 237.835938 C 397.832031 237.617188 397.316406 237.375 396.8125 237.109375 C 396.308594 236.839844 395.816406 236.546875 395.34375 236.230469 C 394.867188 235.917969 394.410156 235.578125 393.96875 235.21875 C 393.527344 234.855469 393.105469 234.476562 392.699219 234.074219 C 392.296875 233.671875 391.914062 233.25 391.550781 232.8125 C 391.1875 232.371094 390.847656 231.914062 390.53125 231.441406 C 390.214844 230.96875 389.921875 230.484375 389.652344 229.980469 C 389.382812 229.480469 389.136719 228.96875 388.917969 228.441406 C 388.699219 227.917969 388.507812 227.382812 388.34375 226.839844 C 388.175781 226.292969 388.039062 225.742188 387.925781 225.1875 C 387.816406 224.628906 387.730469 224.066406 387.675781 223.5 C 387.617188 222.9375 387.589844 222.367188 387.589844 221.800781 C 387.589844 221.230469 387.617188 220.664062 387.675781 220.097656 C 387.730469 219.535156 387.816406 218.972656 387.925781 218.414062 C 388.039062 217.855469 388.175781 217.304688 388.34375 216.761719 C 388.507812 216.21875 388.699219 215.683594 388.917969 215.160156 C 389.136719 214.632812 389.382812 214.121094 389.652344 213.617188 C 389.921875 213.117188 390.214844 212.628906 390.53125 212.15625 C 390.847656 211.683594 391.1875 211.230469 391.550781 210.789062 C 391.914062 210.351562 392.296875 209.929688 392.699219 209.527344 C 393.105469 209.125 393.527344 208.746094 393.96875 208.382812 C 394.410156 208.023438 394.867188 207.683594 395.34375 207.367188 C 395.816406 207.054688 396.308594 206.761719 396.8125 206.492188 C 397.316406 206.226562 397.832031 205.984375 398.359375 205.765625 C 398.886719 205.546875 399.425781 205.355469 399.972656 205.191406 C 400.515625 205.027344 401.070312 204.886719 401.632812 204.777344 C 402.191406 204.667969 402.757812 204.582031 403.324219 204.527344 C 403.894531 204.472656 404.464844 204.445312 405.035156 204.445312 C 405.605469 204.445312 406.175781 204.472656 406.742188 204.527344 C 407.3125 204.582031 407.878906 204.667969 408.4375 204.777344 C 408.996094 204.886719 409.550781 205.027344 410.097656 205.191406 C 410.644531 205.355469 411.183594 205.546875 411.710938 205.765625 C 412.238281 205.984375 412.753906 206.226562 413.257812 206.492188 C 413.761719 206.761719 414.25 207.054688 414.726562 207.367188 C 415.199219 207.683594 415.660156 208.023438 416.101562 208.382812 C 416.542969 208.746094 416.964844 209.125 417.367188 209.527344 C 417.773438 209.929688 418.15625 210.351562 418.519531 210.789062 C 418.878906 211.230469 419.21875 211.683594 419.539062 212.15625 C 419.855469 212.628906 420.148438 213.117188 420.417969 213.617188 C 420.6875 214.121094 420.929688 214.632812 421.148438 215.160156 C 421.367188 215.683594 421.5625 216.21875 421.726562 216.761719 C 421.890625 217.304688 422.03125 217.855469 422.140625 218.414062 C 422.253906 218.972656 422.335938 219.535156 422.394531 220.097656 C 422.449219 220.664062 422.476562 221.230469 422.476562 221.800781 Z M 422.476562 221.800781 " fill-opacity="1" fill-rule="nonzero"/></svg>